<svg width="32" height="24" viewBox="0 0 32 24" fill="none" xmlns="http://www.w3.org/2000/svg">
<path d="M2.18125 24H7.27084V11.6395L0 6.1864V21.8187C0 23.0257 0.977929 24 2.18125 24Z" fill="#4285F4"/>
<path d="M24.7208 24H29.8104C31.0175 24 31.9917 23.022 31.9917 21.8187V6.1864L24.7208 11.6395" fill="#34A853"/>
<path d="M24.7208 2.18744V11.6395L31.9917 6.18641V3.27808C31.9917 0.580585 28.9125 -0.957199 26.7567 0.660563" fill="#FBBC04"/>
<path d="M7.27081 11.6395V2.18744L15.9958 8.73119L24.7208 2.18744V11.6395L15.9958 18.1833" fill="#EA4335"/>
<path d="M0 3.27808V6.18641L7.27084 11.6395V2.18744L5.23501 0.660563C3.07557 -0.957199 0 0.580585 0 3.27808Z" fill="#C5221F"/>
</svg>
