<svg width="34" height="34" viewBox="0 0 34 34" fill="none" xmlns="http://www.w3.org/2000/svg">
<path d="M17 34C26.3888 34 34 26.3888 34 17C34 7.61116 26.3888 0 17 0C7.61116 0 0 7.61116 0 17C0 26.3888 7.61116 34 17 34Z" fill="url(#paint0_linear_304_45)"/>
<path d="M7.07514 16.8526L18.5231 12.1358C19.6532 11.6445 23.4855 10.0722 23.4855 10.0722C23.4855 10.0722 25.2543 9.38438 25.1069 11.0549C25.0578 11.7428 24.6647 14.1503 24.2717 16.7543L23.0433 24.4682C23.0433 24.4682 22.9451 25.5983 22.1098 25.7948C21.2746 25.9913 19.8988 25.1069 19.6532 24.9104C19.4566 24.763 15.9682 22.552 14.6907 21.4711C14.3468 21.1763 13.9537 20.5867 14.7399 19.8988C16.5087 18.2774 18.6214 16.263 19.8988 14.9855C20.4884 14.3959 21.078 13.0202 18.6214 14.6907L11.6936 19.3584C11.6936 19.3584 10.9075 19.8497 9.43352 19.4075C7.95953 18.9653 6.23988 18.3757 6.23988 18.3757C6.23988 18.3757 5.06068 17.6387 7.07514 16.8526Z" fill="white"/>
<defs>
<linearGradient id="paint0_linear_304_45" x1="22.668" y1="5.66798" x2="14.168" y2="25.5" gradientUnits="userSpaceOnUse">
<stop stop-color="#37AEE2"/>
<stop offset="1" stop-color="#1E96C8"/>
</linearGradient>
</defs>
</svg>
