<svg width="32" height="32" viewBox="0 0 32 32" fill="none" xmlns="http://www.w3.org/2000/svg">
<path d="M0 2.29228C0 1.02663 1.0587 0 2.36474 0H29.6353C30.9412 0 32 1.02663 32 2.29228V29.7077C32 30.9738 30.9412 32 29.6353 32H2.36474C1.0587 32 0 30.9738 0 29.7077V2.29228Z" fill="#006699"/>
<path fill-rule="evenodd" clip-rule="evenodd" d="M10.1023 26.7873V12.3375H5.29945V26.7873H10.1023ZM7.70085 10.3647C9.3757 10.3647 10.4182 9.25509 10.4182 7.86843C10.3869 6.45056 9.3757 5.37177 7.73262 5.37177C6.08971 5.37177 5.01553 6.45056 5.01553 7.86843C5.01553 9.25509 6.05776 10.3647 7.66954 10.3647H7.70085Z" fill="white"/>
<path fill-rule="evenodd" clip-rule="evenodd" d="M12.7599 26.7873H17.5627V18.718C17.5627 18.2861 17.5939 17.8547 17.7207 17.546C18.0679 16.6831 18.8582 15.7894 20.1849 15.7894C21.9229 15.7894 22.6181 17.1145 22.6181 19.057V26.7873H27.4205V18.502C27.4205 14.0637 25.051 11.9985 21.8911 11.9985C19.3001 11.9985 18.1627 13.4467 17.5307 14.4331H17.5628V12.3375H12.76C12.823 13.6934 12.7599 26.7873 12.7599 26.7873Z" fill="white"/>
</svg>
