<svg width="32" height="32" viewBox="0 0 32 32" fill="none" xmlns="http://www.w3.org/2000/svg">
<g clip-path="url(#clip0_304_46)">
<path d="M5.89568 0.0128174C2.63936 0.0128174 0 2.66286 0 5.93192V26.0681C0 29.3372 2.64 31.9872 5.89632 31.9872H26.1037C29.36 31.9872 32 29.3372 32 26.0681V5.93192C32 2.66286 29.36 0.0128174 26.1037 0.0128174H5.89568Z" fill="#14A800"/>
<path d="M23.0183 19.4353C21.0272 19.4353 19.7101 17.8999 19.3415 17.3026C19.8125 13.529 21.193 12.3395 23.0183 12.3395C24.8218 12.3395 26.2266 13.7803 26.2266 15.8874C26.2266 17.9945 24.8218 19.4353 23.0183 19.4353ZM23.0183 10.0233C19.7728 10.0233 17.9539 12.1381 17.4343 14.3156C16.8429 13.2067 16.4077 11.7231 16.0647 10.3443H11.5789V15.9232C11.5789 17.9504 10.6586 19.4449 8.85313 19.4449C7.04769 19.4449 6.01345 17.9504 6.01345 15.9239L6.03265 10.3443H3.44705V15.9232C3.44705 17.552 3.97569 19.0286 4.93569 20.0825C5.92641 21.1683 7.28065 21.7419 8.85185 21.7419C11.9738 21.7419 14.1517 19.3496 14.1517 15.9251V12.1765C14.4807 13.41 15.2525 15.7825 16.7379 17.8628L15.3504 25.7566H17.9795L18.8954 20.1598C19.1962 20.4086 19.5149 20.6337 19.849 20.8345C20.7254 21.391 21.7353 21.7022 22.7731 21.7355H22.7783C22.8557 21.7355 22.9344 21.74 23.0144 21.74C26.233 21.74 28.7962 19.2498 28.7962 15.8932C28.7968 12.5346 26.2362 10.0233 23.0183 10.0233Z" fill="white"/>
</g>
<defs>
<clipPath id="clip0_304_46">
<rect width="32" height="32" fill="white"/>
</clipPath>
</defs>
</svg>
